<svg width="12" height="12" viewBox="0 0 12 12" fill="none" xmlns="http://www.w3.org/2000/svg">
<path fill-rule="evenodd" clip-rule="evenodd" d="M0 5.30703C0 3.03134 1.84481 1.18652 4.12051 1.18652H7.87949C10.1552 1.18652 12 3.03134 12 5.30703C12 7.58273 10.1552 9.42754 7.87949 9.42754H4.12051C3.889 9.42754 3.66196 9.40845 3.44086 9.37176L2.07976 10.7071C1.84251 10.9399 1.44214 10.7718 1.44214 10.4394V8.43842C0.559414 7.68268 0 6.56019 0 5.30703ZM4.2 5.30691C4.2 5.63828 3.93137 5.90691 3.6 5.90691C3.26863 5.90691 3 5.63828 3 5.30691C3 4.97554 3.26863 4.70691 3.6 4.70691C3.93137 4.70691 4.2 4.97554 4.2 5.30691ZM6.60015 5.30703C6.60015 5.6384 6.33152 5.90703 6.00015 5.90703C5.66878 5.90703 5.40015 5.6384 5.40015 5.30703C5.40015 4.97566 5.66878 4.70703 6.00015 4.70703C6.33152 4.70703 6.60015 4.97566 6.60015 5.30703ZM8.40029 5.90703C8.73166 5.90703 9.00029 5.6384 9.00029 5.30703C9.00029 4.97566 8.73166 4.70703 8.40029 4.70703C8.06892 4.70703 7.80029 4.97566 7.80029 5.30703C7.80029 5.6384 8.06892 5.90703 8.40029 5.90703Z" fill="white"/>
</svg>
