<svg width="24" height="25" viewBox="0 0 24 25" fill="currentColor" stroke="currentColor" xmlns="http://www.w3.org/2000/svg">
<path fill-rule="evenodd" clip-rule="evenodd" d="M8.5 2.75195C8.22386 2.75195 8 2.97581 8 3.25195V10.252C8 10.5281 8.22386 10.752 8.5 10.752H15.5C15.7761 10.752 16 10.5281 16 10.252V3.25195C16 2.97581 15.7761 2.75195 15.5 2.75195H8.5ZM4.5 12.752C4.22386 12.752 4 12.9758 4 13.252V20.252C4 20.5281 4.22386 20.752 4.5 20.752H19.5C19.7761 20.752 20 20.5281 20 20.252V13.252C20 12.9758 19.7761 12.752 19.5 12.752H4.5Z" fill="currentColor" stroke="currentColor"/>
</svg>
