<svg width="24" height="24" viewBox="0 0 24 24" fill="none" xmlns="http://www.w3.org/2000/svg">
<path d="M12 16C14.2091 16 16 14.2091 16 12C16 9.79086 14.2091 8 12 8C9.79086 8 8 9.79086 8 12C8 14.2091 9.79086 16 12 16Z" stroke="#9EA3AD" stroke-width="2" stroke-linecap="round" stroke-linejoin="round"/>
<path d="M19.1676 7.94004L19.1018 7.82619C18.9204 7.51217 18.8278 7.15475 18.8339 6.79216L18.8639 5.01333C18.87 4.64981 18.6783 4.3116 18.3633 4.13007L15.6266 2.55307C15.3124 2.372 14.9248 2.37524 14.6136 2.56155L13.0945 3.47113C12.7841 3.65704 12.429 3.75522 12.0671 3.75522H11.9354C11.5727 3.75522 11.2169 3.65661 10.906 3.46994L9.37989 2.55377C9.06765 2.36632 8.67819 2.36344 8.36321 2.54625L5.63522 4.12954C5.32173 4.31149 5.13124 4.64883 5.13733 5.01125L5.1673 6.79216C5.1734 7.15475 5.0808 7.51217 4.89941 7.82619L4.83452 7.93852C4.65303 8.25271 4.38949 8.5116 4.07212 8.68748L2.51724 9.54914C2.19854 9.72576 2.00113 10.0617 2.00196 10.4261L2.00911 13.5779C2.00994 13.9401 2.20649 14.2735 2.52297 14.4495L4.07039 15.3104C4.38884 15.4875 4.65283 15.7483 4.83386 16.0646L4.90339 16.186C5.08222 16.4985 5.17341 16.8534 5.16734 17.2133L5.1374 18.9865C5.13127 19.35 5.32294 19.6882 5.63798 19.8698L8.37461 21.4468C8.68883 21.6278 9.07647 21.6246 9.38762 21.4383L10.9067 20.5287C11.2172 20.3428 11.5723 20.2446 11.9341 20.2446H12.0658C12.4285 20.2446 12.7843 20.3432 13.0953 20.5299L14.6213 21.4461C14.9336 21.6335 15.323 21.6364 15.638 21.4536L18.366 19.8703C18.6795 19.6884 18.87 19.351 18.8639 18.9886L18.8339 17.2077C18.8278 16.8451 18.9204 16.4877 19.1018 16.1737L19.1667 16.0613C19.3482 15.7471 19.6117 15.4882 19.9291 15.3124L21.484 14.4507C21.8027 14.2741 22.0001 13.9381 21.9993 13.5738L21.9921 10.4219C21.9913 10.0598 21.7947 9.72638 21.4783 9.55032L19.9271 8.68741C19.611 8.51156 19.3485 8.25327 19.1676 7.94004Z" stroke="#9EA3AD" stroke-width="2" stroke-linecap="round" stroke-linejoin="round"/>
</svg>
