<svg width="25" height="24" viewBox="0 0 25 24" fill="none" xmlns="http://www.w3.org/2000/svg">
<g id="img_taxi_24px">
<circle id="Ellipse 694" cx="12.3333" cy="12" r="12" fill="white"/>
<g id="taxi">
<path id="Vector 1149" d="M10.3333 5.25012V6.99254H14.3333V5.25012C14.3333 5.11205 14.2213 5.00012 14.0833 5.00012H10.5833C10.4452 5.00012 10.3333 5.11205 10.3333 5.25012Z" fill="#686868"/>
<g id="Group 427322337">
<path id="Rectangle 2976" d="M5.62573 16.2615C5.62573 16.1234 5.73766 16.0115 5.87573 16.0115H8.37573C8.5138 16.0115 8.62573 16.1234 8.62573 16.2615V18.7501C8.62573 18.8882 8.5138 19.0001 8.37573 19.0001H5.87573C5.73766 19.0001 5.62573 18.8882 5.62573 18.7501V16.2615Z" fill="#B8B8B8"/>
<path id="Rectangle 2977" d="M16.374 16.2615C16.374 16.1234 16.486 16.0115 16.624 16.0115H19.124C19.2621 16.0115 19.374 16.1234 19.374 16.2615V18.7501C19.374 18.8882 19.2621 19.0001 19.124 19.0001H16.624C16.486 19.0001 16.374 18.8882 16.374 18.7501V16.2615Z" fill="#B8B8B8"/>
</g>
<path id="Vector 1148" d="M16.8483 6.62027L18.7036 10.7059L17.484 11.8383C17.4377 11.8812 17.377 11.9051 17.3139 11.9051H7.30747C7.2377 11.9051 7.1711 11.8759 7.12377 11.8246L6.09106 10.7059L7.97009 6.6192C8.01088 6.53048 8.09959 6.47363 8.19723 6.47363H16.6207C16.7187 6.47363 16.8077 6.53097 16.8483 6.62027Z" fill="#B8B8B8"/>
<g id="Group 427322335">
<path id="Vector 1150" d="M4.48006 12.3098L6.08708 10.7061L7.11979 11.8248C7.16712 11.876 7.23372 11.9052 7.30349 11.9052H17.3099C17.373 11.9052 17.4337 11.8813 17.48 11.8384L18.6996 10.7061L20.1988 12.3123C20.2852 12.4048 20.3333 12.5268 20.3333 12.6534V16.7895C20.3333 17.0656 20.1094 17.2895 19.8333 17.2895H4.83325C4.55711 17.2895 4.33325 17.0656 4.33325 16.7895V12.6637C4.33325 12.531 4.38607 12.4036 4.48006 12.3098Z" fill="#686868"/>
<path id="Rectangle 2978" d="M4.33325 13.6132H8.08325C8.22132 13.6132 8.33325 13.7251 8.33325 13.8632V15.3556C8.33325 15.4937 8.22132 15.6056 8.08325 15.6056H4.33325V13.6132Z" fill="#B8B8B8"/>
<path id="Rectangle 2979" d="M16.3333 13.8632C16.3333 13.7251 16.4452 13.6132 16.5833 13.6132H20.3333V15.6056H16.5833C16.4452 15.6056 16.3333 15.4937 16.3333 15.3556V13.8632Z" fill="#B8B8B8"/>
<path id="Rectangle 2980" d="M10.3333 15.3075C10.3333 15.1971 10.4228 15.1075 10.5333 15.1075H14.1333C14.2437 15.1075 14.3333 15.1971 14.3333 15.3075V15.4056C14.3333 15.5161 14.2437 15.6056 14.1333 15.6056H10.5333C10.4228 15.6056 10.3333 15.5161 10.3333 15.4056V15.3075Z" fill="#B8B8B8"/>
</g>
</g>
</g>
</svg>
