<svg width="40" height="40" viewBox="0 0 40 40" fill="none" xmlns="http://www.w3.org/2000/svg">
<g id="comment2">
<rect id="Rectangle 3029" x="8.88867" y="4.44434" width="12.5254" height="16.3374" rx="1.08916" fill="#FAD75B"/>
<g id="Group 427322376">
<rect id="Rectangle 3033" x="31.9902" y="18.4473" width="8.71404" height="7.74515" rx="1.53074" transform="rotate(90 31.9902 18.4473)" fill="#FAD75B"/>
<g id="Group 427322375">
<rect id="Rectangle 3029_2" x="37.7778" y="13.333" width="8.71404" height="7.74515" rx="0.444444" transform="rotate(90 37.7778 13.333)" fill="#FAD75B"/>
<rect id="Rectangle 3032" x="37.7778" y="23.5625" width="8.71404" height="7.74515" rx="0.444444" transform="rotate(90 37.7778 23.5625)" fill="#FAD75B"/>
</g>
</g>
<rect id="Rectangle 7002" x="11.1113" y="4.44434" width="1.11111" height="2.22222" fill="#CDAC36"/>
<rect id="Rectangle 7003" x="14.4443" y="4.44434" width="1.11111" height="2.22222" fill="#CDAC36"/>
<rect id="Rectangle 7004" x="17.7778" y="4.44434" width="1.11111" height="2.22222" fill="#CDAC36"/>
<g id="Group 427322616">
<rect id="Rectangle 3034" x="2.22217" y="8.88867" width="26.6667" height="26.6667" rx="1.33333" fill="#FAD75B"/>
<rect id="Rectangle 7006" x="20" y="25.0996" width="1.11111" height="2.22222" transform="rotate(-36.1418 20 25.0996)" fill="#9B8021"/>
<rect id="Rectangle 7005" x="10.707" y="27.7773" width="8.88889" height="2.22222" rx="1.11111" fill="#9B8021"/>
<path id="Rectangle 7007" d="M2.22217 25.5557H7.77772V27.7779C7.77772 30.2325 5.78788 32.2223 3.33328 32.2223H2.22217V25.5557Z" fill="#FFEBA4"/>
<path id="Rectangle 7008" d="M23.3335 25.5557H28.8891V32.2223H27.7779C25.3233 32.2223 23.3335 30.2325 23.3335 27.7779V25.5557Z" fill="#FFEBA4"/>
<g id="Group 427322614">
<g id="Group 427322462">
<rect id="Rectangle 3039" width="3.33333" height="3.33333" rx="0.222222" transform="matrix(-1 0 0 1 13.0791 18.8887)" fill="#9B8021"/>
<rect id="Rectangle 3049" x="6.6665" y="15.1914" width="6.66667" height="2.22222" rx="0.444444" fill="#9B8021"/>
</g>
<g id="Group 427322463">
<rect id="Rectangle 3039_2" x="16.9199" y="18.8887" width="3.33333" height="3.33333" rx="0.222222" fill="#9B8021"/>
<rect id="Rectangle 3049_2" width="6.66667" height="2.22222" rx="0.444444" transform="matrix(-1 8.74228e-08 8.74228e-08 1 23.333 15.1914)" fill="#9B8021"/>
</g>
</g>
</g>
</g>
</svg>
