<svg width="20" height="20" viewBox="0 0 20 20" fill="none" xmlns="http://www.w3.org/2000/svg">
<g clip-path="url(#clip0_2305_61981)">
<rect width="19.9998" height="19.9998" rx="1" fill="#484949"/>
<path fill-rule="evenodd" clip-rule="evenodd" d="M3 6.38403C3 5.27946 3.89543 4.38403 5 4.38403H15C16.1046 4.38403 17 5.27946 17 6.38403V11.9986C17 13.1031 16.1046 13.9986 15 13.9986H6.94795L5.42638 15.4913C5.14959 15.7629 4.6825 15.5668 4.6825 15.179V13.9735C3.72881 13.8214 3 12.9951 3 11.9986V6.38403ZM7.9 9.19121C7.9 9.57781 7.5866 9.89121 7.2 9.89121C6.8134 9.89121 6.5 9.57781 6.5 9.19121C6.5 8.80461 6.8134 8.49121 7.2 8.49121C7.5866 8.49121 7.9 8.80461 7.9 9.19121ZM10.7002 9.19121C10.7002 9.57781 10.3868 9.89121 10.0002 9.89121C9.61357 9.89121 9.30017 9.57781 9.30017 9.19121C9.30017 8.80461 9.61357 8.49121 10.0002 8.49121C10.3868 8.49121 10.7002 8.80461 10.7002 9.19121ZM12.8003 9.89121C13.1869 9.89121 13.5003 9.57781 13.5003 9.19121C13.5003 8.80461 13.1869 8.49121 12.8003 8.49121C12.4137 8.49121 12.1003 8.80461 12.1003 9.19121C12.1003 9.57781 12.4137 9.89121 12.8003 9.89121Z" fill="white"/>
</g>
<defs>
<clipPath id="clip0_2305_61981">
<rect width="20" height="20" fill="white"/>
</clipPath>
</defs>
</svg>
