<svg width="14" height="15" viewBox="0 0 14 15" fill="none" xmlns="http://www.w3.org/2000/svg">
<g id="ideate/solid/filter6" clip-path="url(#clip0_2220_22338)">
<path id="Vector 149" d="M11.5 4.46976V3.53955C11.5 2.59674 11.5 2.12534 11.2071 1.83244C10.9142 1.53955 10.4428 1.53955 9.5 1.53955H4.5C3.55719 1.53955 3.08579 1.53955 2.79289 1.83244C2.5 2.12534 2.5 2.59674 2.5 3.53955V4.46976C2.5 4.85713 2.5 5.05081 2.56899 5.22679C2.63798 5.40277 2.76961 5.54485 3.03288 5.82901L4.87889 7.82153C5.14215 8.10569 5.27379 8.24777 5.34278 8.42374C5.41176 8.59972 5.41176 8.7934 5.41176 9.18077V10.9513C5.41176 11.5003 5.41176 11.7747 5.5166 11.9853C5.61355 12.18 5.77133 12.3378 5.96603 12.4347C6.17657 12.5396 6.45104 12.5396 7 12.5396C7.54896 12.5396 7.82343 12.5396 8.03397 12.4347C8.22867 12.3378 8.38645 12.18 8.4834 11.9853C8.58824 11.7747 8.58824 11.5003 8.58824 10.9513V9.18077C8.58824 8.7934 8.58824 8.59972 8.65723 8.42374C8.72621 8.24777 8.85785 8.10569 9.12111 7.82153L10.9671 5.82901C11.2304 5.54485 11.362 5.40277 11.431 5.22679C11.5 5.05081 11.5 4.85713 11.5 4.46976Z" fill="#9EA3AD"/>
</g>
<defs>
<clipPath id="clip0_2220_22338">
<rect width="14" height="14" fill="white" transform="translate(0 0.0395508)"/>
</clipPath>
</defs>
</svg>
