<svg width="269" height="53" viewBox="0 0 269 53" fill="none" xmlns="http://www.w3.org/2000/svg">
<path opacity="0.8" d="M179.617 41.7441V31.5917C179.617 31.0206 179.158 30.5576 178.592 30.5576H166.037C165.471 30.5576 165.012 31.0206 165.012 31.5917V41.7441C165.012 42.3152 165.471 42.7782 166.037 42.7782H178.592C179.158 42.7782 179.617 42.3152 179.617 41.7441Z" fill="white"/>
<path d="M199.36 3.62255V2.34409C199.36 1.23797 198.471 0.341797 197.374 0.341797H147.992C146.895 0.341797 146.006 1.23797 146.006 2.34409L144.428 10.5569C144.428 11.663 145.316 12.5592 146.413 12.5592H186.718L185.764 28.8502C185.764 29.9563 186.653 30.8524 187.75 30.8524L195.895 29.2606C196.992 29.2606 197.719 28.3519 197.881 27.2584C198.558 22.743 199.91 10.4723 199.357 3.62255H199.36Z" fill="white"/>
<path d="M141.865 50.2229V42.8467C141.865 41.681 142.801 40.7378 143.957 40.7378L200.682 37.291C201.838 37.291 202.773 38.2342 202.773 39.3998V50.2229C202.773 51.3885 201.838 52.3317 200.682 52.3317H143.957C142.801 52.3317 141.865 51.3885 141.865 50.2229Z" fill="white"/>
<path d="M135.388 41.1615H95.727V33.2777C95.727 32.6541 95.2236 32.1465 94.6052 32.1465L79.3347 34.9666C78.7163 34.9666 78.2129 35.4742 78.2129 36.0978V50.5619C78.2129 51.7276 79.1483 52.6707 80.3043 52.6707H135.388C136.544 52.6707 137.48 51.7276 137.48 50.5619V43.2359C137.48 42.0702 136.544 41.1615 135.388 41.1615Z" fill="white"/>
<path d="M134.117 28.828L123.496 30.7081C122.747 30.7081 122.141 30.0939 122.141 29.3387V1.36933C122.141 0.614161 122.747 0 123.496 0H134.117C134.866 0 135.472 0.614161 135.472 1.36933V27.4586C135.472 28.2138 134.866 28.828 134.117 28.828Z" fill="white"/>
<path d="M116.165 0H75.9351C75.1178 0 74.4528 0.66743 74.4528 1.49467V6.5239C74.4528 7.348 75.1147 8.01856 75.9351 8.01856H97.865C98.3528 8.01856 98.7444 8.41651 98.7444 8.90534V10.541C98.7444 11.033 98.3497 11.4278 97.865 11.4278H75.5311C74.9003 11.4278 74.3906 11.9417 74.3906 12.5778V26.4873C74.3906 27.3114 75.0525 27.9819 75.8729 27.9819H116.103C116.92 27.9819 117.585 27.3145 117.585 26.4873V21.458C117.585 20.6339 116.924 19.9634 116.103 19.9634H94.1732C93.6853 19.9634 93.2938 19.5654 93.2938 19.0766V17.4409C93.2938 16.949 93.6884 16.5541 94.1732 16.5541H116.442C117.073 16.5541 117.582 16.0403 117.582 15.4042V13.6588C117.62 13.5397 117.644 13.4175 117.644 13.2859V1.49467C117.644 0.670564 116.983 0 116.162 0H116.165Z" fill="white"/>
<path d="M69.9219 31.4162V21.2575C69.9219 20.6881 69.4641 20.2266 68.8995 20.2266H56.3761C55.8115 20.2266 55.3537 20.6881 55.3537 21.2575V31.4162C55.3537 31.9856 55.8115 32.4471 56.3761 32.4471H68.8995C69.4641 32.4471 69.9219 31.9856 69.9219 31.4162Z" fill="white"/>
<path d="M60.4131 0.485352H50.6026C49.6312 0.485352 48.8438 1.2794 48.8438 2.2589V50.4141C48.8438 51.3936 49.6312 52.1877 50.6026 52.1877H60.4131C61.3845 52.1877 62.172 51.3936 62.172 50.4141V2.2589C62.172 1.2794 61.3845 0.485352 60.4131 0.485352Z" fill="white"/>
<path opacity="0.8" d="M42.4304 43.5641L36.5354 50.1006C35.8113 50.6364 34.7952 50.4766 34.2669 49.7465L15.6745 24.0833C15.1462 23.3532 15.3016 22.3254 16.0256 21.7896L23.1605 16.5066C23.8846 15.9707 24.9008 16.1305 25.429 16.8606L42.7815 41.2704C43.3098 42.0005 43.1544 43.0283 42.4304 43.5641Z" fill="white"/>
<path d="M42.7653 2.25586H3.09137C2.11871 2.25586 1.3294 3.05176 1.3294 4.03254V12.6997C1.3294 13.6805 2.11871 14.4764 3.09137 14.4764H18.2344L0.294588 42.9848C-0.264769 43.8716 -0.0037353 45.0466 0.875698 45.6106L7.92049 50.1197C8.79992 50.6837 9.96525 50.4205 10.5246 49.5337L32.5881 14.4764H42.7653C43.738 14.4764 44.5273 13.6805 44.5273 12.6997V4.03254C44.5273 3.05176 43.738 2.25586 42.7653 2.25586Z" fill="white"/>
<path opacity="0.8" d="M211.061 34.3707V25.8225C211.061 24.9044 211.66 24.1618 212.4 24.1618L241.3 19.4365C242.04 19.4365 242.639 20.1792 242.639 21.0973V29.6454C242.639 30.5635 242.04 31.3061 241.3 31.3061L212.4 36.0314C211.66 36.0314 211.061 35.2888 211.061 34.3707Z" fill="white"/>
<path d="M248.779 0.485352H238.94C237.968 0.485352 237.178 1.28125 237.178 2.26203V38.7137H220.398V2.26203C220.398 1.28125 219.608 0.485352 218.636 0.485352H208.797C207.824 0.485352 207.035 1.28125 207.035 2.26203V50.411C207.035 51.3918 207.824 52.1877 208.797 52.1877H248.779C249.751 52.1877 250.541 51.3918 250.541 50.411V2.26203C250.541 1.28125 249.751 0.485352 248.779 0.485352Z" fill="white"/>
<path d="M266.483 0.485352H256.645C255.672 0.485352 254.883 1.2808 254.883 2.26203V50.411C254.883 51.3922 255.672 52.1877 256.645 52.1877H266.483C267.456 52.1877 268.245 51.3922 268.245 50.411V2.26203C268.245 1.2808 267.456 0.485352 266.483 0.485352Z" fill="white"/>
</svg>
