<svg width="21" height="21" viewBox="0 0 21 21" fill="none" xmlns="http://www.w3.org/2000/svg">
<g id="ic_time_24px" clip-path="url(#clip0_2965_36213)">
<path id="Subtract" fill-rule="evenodd" clip-rule="evenodd" d="M15.9797 10.0384C15.9797 13.2551 13.363 15.8717 10.1463 15.8717C6.92966 15.8717 4.31299 13.2551 4.31299 10.0384C4.31299 7.44674 6.01299 5.23841 8.35466 4.48841C8.92132 4.31341 9.52132 4.20508 10.1463 4.20508C10.7713 4.20508 11.3713 4.30508 11.938 4.48841C14.2797 5.24674 15.9797 7.44674 15.9797 10.0384ZM10.1462 6.28845C10.3764 6.28845 10.5629 6.475 10.5629 6.70512L10.5629 9.62183H13.4796C13.7097 9.62183 13.8962 9.80837 13.8962 10.0385C13.8962 10.2686 13.7097 10.4552 13.4796 10.4552H10.1462C9.91612 10.4552 9.72957 10.2686 9.72957 10.0385C9.72957 10.0383 9.72957 10.0381 9.72957 10.0379V6.70512C9.72957 6.475 9.91612 6.28845 10.1462 6.28845Z" fill="#999999"/>
</g>
<defs>
<clipPath id="clip0_2965_36213">
<rect width="20" height="20" fill="white" transform="translate(0.146484 0.0390625)"/>
</clipPath>
</defs>
</svg>
