<svg width="24" height="25" viewBox="0 0 24 25" fill="currentColor" stroke="currentColor" xmlns="http://www.w3.org/2000/svg">
<path fill-rule="evenodd" clip-rule="evenodd" d="M2.97363 3.97705C2.97363 3.42477 3.42135 2.97705 3.97363 2.97705H19.9736C20.5259 2.97705 20.9736 3.42477 20.9736 3.97705V19.9771C20.9736 20.5293 20.5259 20.9771 19.9736 20.9771H3.97363C3.42135 20.9771 2.97363 20.5293 2.97363 19.9771V3.97705ZM16.3659 8.26113C16.5948 7.84626 16.1567 7.38142 15.7337 7.59001L10.0691 10.0769C10.0627 10.0804 10.0576 10.0859 10.0546 10.0926L7.48278 15.8326C7.26937 16.2582 7.73003 16.706 8.14462 16.4759L13.6899 13.9187C13.6963 13.9152 13.7014 13.9097 13.7045 13.9031L16.3659 8.26113ZM11.249 11.0759C11.111 11.0759 10.999 11.1879 10.999 11.3259V12.8259C10.999 12.964 11.111 13.0759 11.249 13.0759H12.749C12.8871 13.0759 12.999 12.964 12.999 12.8259V11.3259C12.999 11.1879 12.8871 11.0759 12.749 11.0759H11.249Z" fill="currentColor" stroke="currentColor"/>
</svg>
