<svg width="24" height="25" viewBox="0 0 24 25" fill="none" xmlns="http://www.w3.org/2000/svg">
<circle cx="12" cy="12.0396" r="12" fill="white"/>
<path d="M4.15613 8.98166L7.00952 6.15625L9.06215 9.85161L6.50887 11.9886C6.39967 12.0799 6.2363 12.0618 6.14981 11.9487L4.13342 9.31114C4.05705 9.21124 4.06677 9.07015 4.15613 8.98166Z" fill="#73777E"/>
<path d="M19.8434 8.90305L16.99 6.07764L14.9374 9.773L17.4906 11.9099C17.5998 12.0013 17.7632 11.9832 17.8497 11.8701L19.8661 9.23253C19.9425 9.13262 19.9327 8.99153 19.8434 8.90305Z" fill="#73777E"/>
<path d="M6.96094 17.0396H17.0856V18.7896C17.0856 18.9276 16.9736 19.0396 16.8356 19.0396H7.21094C7.07287 19.0396 6.96094 18.9276 6.96094 18.7896V17.0396Z" fill="#73777E"/>
<path d="M10.3772 5.04053C9.31629 5.01054 7.83144 5.67385 7.08647 6.08303C7.00808 6.12609 6.96094 6.20868 6.96094 6.29812V17.0396H17.0856V6.26596C17.0856 6.19447 17.0554 6.12595 17 6.08074C16.0708 5.32217 14.5716 5.08774 13.7628 5.05646C13.6527 5.0522 13.5641 5.14179 13.5641 5.25198V7.5549C13.5641 7.69297 13.4535 7.80489 13.3154 7.80489H10.8052C10.6671 7.80489 10.5554 7.69322 10.5554 7.55514V5.23125C10.5554 5.12938 10.4791 5.04341 10.3772 5.04053Z" fill="#C2C7D1"/>
</svg>
