<svg width="25" height="24" viewBox="0 0 25 24" fill="none"
     xmlns="http://www.w3.org/2000/svg">
  <g id="ic_overflow_24px">
    <g id="Group 427321911">
      <g id="Group">
        <path id="Vector"
              d="M5.06641 13.75C6.0329 13.75 6.81641 12.9665 6.81641 12C6.81641 11.0335 6.0329 10.25 5.06641 10.25C4.09991 10.25 3.31641 11.0335 3.31641 12C3.31641 12.9665 4.09991 13.75 5.06641 13.75Z"
              fill="#73777E"/>
        <path id="Vector_2"
              d="M12.1455 13.75C13.112 13.75 13.8955 12.9665 13.8955 12C13.8955 11.0335 13.112 10.25 12.1455 10.25C11.179 10.25 10.3955 11.0335 10.3955 12C10.3955 12.9665 11.179 13.75 12.1455 13.75Z"
              fill="#73777E"/>
        <path id="Vector_3"
              d="M19.2266 13.75C20.1931 13.75 20.9766 12.9665 20.9766 12C20.9766 11.0335 20.1931 10.25 19.2266 10.25C18.2601 10.25 17.4766 11.0335 17.4766 12C17.4766 12.9665 18.2601 13.75 19.2266 13.75Z"
              fill="#73777E"/>
      </g>
    </g>
  </g>
</svg>
