<svg width="24" height="24" viewBox="0 0 24 24" fill="none" xmlns="http://www.w3.org/2000/svg">
<g id="img_rice_act_24px">
<circle id="Ellipse 694" cx="12" cy="12" r="12" fill="#FFF3EB"/>
<g id="rice">
<path id="Union" fill-rule="evenodd" clip-rule="evenodd" d="M9.12696 5.23512C9.12696 5.10527 9.23667 5 9.37199 5H12.1164C12.1295 5 12.1423 5.00098 12.1548 5.00287H14.4835C14.6188 5.00287 14.7285 5.10814 14.7285 5.23799V5.89377H16.3959C16.5312 5.89377 16.6409 5.99904 16.6409 6.12889V7.03782H17.9331C18.0684 7.03782 18.1781 7.14309 18.1781 7.27294V8.76084H19.255C19.3903 8.76084 19.5 8.86611 19.5 8.99596V11.6294C19.5 11.7592 19.3903 11.8645 19.255 11.8645H16.5106C16.4664 11.8645 16.425 11.8533 16.3893 11.8337H7.633C7.59265 11.8617 7.54305 11.8783 7.48943 11.8783H4.74504C4.60971 11.8783 4.5 11.773 4.5 11.6431V9.00974C4.5 8.87988 4.60971 8.77461 4.74504 8.77461H5.6352V7.24539C5.6352 7.11553 5.74491 7.01027 5.88024 7.01027H7.25856V6.15645C7.25856 6.02659 7.36827 5.92132 7.5036 5.92132H9.12696V5.23512Z" fill="#FF802D"/>
<path id="Union_2" fill-rule="evenodd" clip-rule="evenodd" d="M4.25 11.1392C4.11193 11.1392 4 11.246 4 11.3777V17.5806C4 17.7123 4.11193 17.8192 4.25 17.8192H8V18.7614C8 18.8932 8.11193 19 8.25 19H15.75C15.8881 19 16 18.8932 16 18.7614V17.8192H19.75C19.8881 17.8192 20 17.7124 20 17.5806V11.3777C20 11.246 19.8881 11.1392 19.75 11.1392H4.25Z" fill="#CD5303"/>
</g>
</g>
</svg>
