<svg width="24" height="25" viewBox="0 0 24 25" fill="currentColor" stroke="currentColor" xmlns="http://www.w3.org/2000/svg">
<path fill-rule="evenodd" clip-rule="evenodd" d="M2 4.92261C2 4.37032 2.44772 3.92261 3 3.92261H21C21.5523 3.92261 22 4.37032 22 4.92261V16.6576C22 17.2099 21.5523 17.6576 21 17.6576H8.43738L7.40332 18.6721L5.25348 20.7813C4.93714 21.0916 4.40332 20.8675 4.40332 20.4244V17.6576H3C2.44772 17.6576 2 17.2099 2 16.6576V4.92261ZM7.01953 10.2901C7.01953 10.014 7.24339 9.7901 7.51953 9.7901H8.51953C8.79567 9.7901 9.01953 10.014 9.01953 10.2901V11.2901C9.01953 11.5662 8.79567 11.7901 8.51953 11.7901H7.51953C7.24339 11.7901 7.01953 11.5662 7.01953 11.2901V10.2901ZM11 10.2901C11 10.014 11.2239 9.7901 11.5 9.7901H12.5C12.7761 9.7901 13 10.014 13 10.2901V11.2901C13 11.5662 12.7761 11.7901 12.5 11.7901H11.5C11.2239 11.7901 11 11.5662 11 11.2901V10.2901ZM15.4805 9.7901C15.2043 9.7901 14.9805 10.014 14.9805 10.2901V11.2901C14.9805 11.5662 15.2043 11.7901 15.4805 11.7901H16.4805C16.7566 11.7901 16.9805 11.5662 16.9805 11.2901V10.2901C16.9805 10.014 16.7566 9.7901 16.4805 9.7901H15.4805Z" fill="currentColor" stroke="currentColor"/>
</svg>
