<svg width="25" height="24" viewBox="0 0 25 24" fill="none" xmlns="http://www.w3.org/2000/svg">
<g id="img_shopping_24px">
<circle id="Ellipse 694" cx="12.6665" cy="12" r="12" fill="white"/>
<g id="clothes">
<path id="Vector 1158" d="M4.82288 8.94211L7.67627 6.1167L9.7289 9.81206L7.17562 11.949C7.06642 12.0404 6.90305 12.0223 6.81656 11.9091L4.80017 9.27159C4.72379 9.17169 4.73352 9.03059 4.82288 8.94211Z" fill="#686868"/>
<path id="Vector 1159" d="M20.5101 8.86331L17.6567 6.0379L15.6041 9.73326L18.1574 11.8702C18.2666 11.9616 18.43 11.9435 18.5164 11.8303L20.5328 9.1928C20.6092 9.09289 20.5995 8.9518 20.5101 8.86331Z" fill="#686868"/>
<path id="Rectangle 2986" d="M7.62793 17H17.7525V18.75C17.7525 18.8881 17.6406 19 17.5025 19H7.87793C7.73986 19 7.62793 18.8881 7.62793 18.75V17Z" fill="#686868"/>
<path id="Vector 1160" d="M11.0442 5.00098C9.98328 4.97099 8.49843 5.6343 7.75346 6.04348C7.67507 6.08654 7.62793 6.16913 7.62793 6.25857V17H17.7525V6.2264C17.7525 6.15492 17.7223 6.0864 17.667 6.04119C16.7377 5.28262 15.2386 5.04819 14.4298 5.01691C14.3197 5.01265 14.2311 5.10224 14.2311 5.21243V7.51535C14.2311 7.65342 14.1205 7.76534 13.9824 7.76534H11.4722C11.3341 7.76534 11.2224 7.65366 11.2224 7.51559V5.1917C11.2224 5.08983 11.1461 5.00386 11.0442 5.00098Z" fill="#B8B8B8"/>
</g>
</g>
</svg>
