<svg width="20" height="20" viewBox="0 0 20 20" fill="none" xmlns="http://www.w3.org/2000/svg">
<g clip-path="url(#clip0_2305_61979)">
<rect width="20" height="20" rx="1" fill="#FF802D"/>
<path d="M0 12.5H4.16667V14.1667C4.16667 16.0076 2.67428 17.5 0.833333 17.5H0V12.5Z" fill="#FFB382"/>
<path d="M15.8333 12.5H19.9999V17.5H19.1666C17.3256 17.5 15.8333 16.0076 15.8333 14.1667V12.5Z" fill="#FFB382"/>
<rect width="2.5" height="2.5" rx="0.166667" transform="matrix(-1 0 0 1 8.33325 7.5)" fill="#8A4315"/>
<rect width="5" height="1.66667" rx="0.333333" transform="matrix(-0.965926 -0.258819 -0.258819 0.965926 8.6543 5.40259)" fill="#8A4315"/>
<rect x="11.1543" y="7.5" width="2.5" height="2.5" rx="0.166667" fill="#8A4315"/>
<rect x="10.8333" y="5.40259" width="5" height="1.66667" rx="0.333333" transform="rotate(-15 10.8333 5.40259)" fill="#8A4315"/>
<path d="M11.6667 16.6667L7.50008 16.6667L7.50008 14.5834C7.50008 13.4328 8.43282 12.5001 9.58342 12.5001V12.5001C10.734 12.5001 11.6667 13.4328 11.6667 14.5834L11.6667 16.6667Z" fill="#8A4315"/>
</g>
<defs>
<clipPath id="clip0_2305_61979">
<rect width="20" height="20" fill="white"/>
</clipPath>
</defs>
</svg>
