<svg width='current' height='current' viewBox="0 0 10 10" fill="none" xmlns="http://www.w3.org/2000/svg">
<path fill-rule="evenodd" clip-rule="evenodd" d="M9.77297 0.227072C10.0659 0.519966 10.0659 0.994839 9.77297 1.28773L6.06066 5.00004L9.77297 8.71235C10.0659 9.00525 10.0659 9.48012 9.77297 9.77301C9.48008 10.0659 9.0052 10.0659 8.71231 9.77301L5 6.0607L1.28769 9.77301C0.994797 10.0659 0.519923 10.0659 0.227029 9.77301C-0.065864 9.48012 -0.0658636 9.00525 0.227029 8.71235L3.93934 5.00004L0.227029 1.28773C-0.0658639 0.994839 -0.065864 0.519966 0.227029 0.227072C0.519923 -0.065821 0.994796 -0.065821 1.28769 0.227072L5 3.93938L8.71231 0.227072C9.0052 -0.065821 9.48008 -0.065821 9.77297 0.227072Z" fill="#9EA3AD"/>
</svg>
