<svg width="24" height="24" viewBox="0 0 24 24" fill="none" xmlns="http://www.w3.org/2000/svg">
<g id="img_Hobby_act_24px">
<circle id="Ellipse 694" cx="12" cy="12" r="12" fill="#FFF3EB"/>
<g id="game">
<path id="Vector 1182" d="M6.01699 17.6854L4.22834 16.0525C4.08843 15.9248 4.03272 15.7289 4.08445 15.5467L6.69114 6.36347C6.75219 6.1484 6.94858 6 7.17214 6H10.4131C10.6265 6 10.8164 6.13548 10.8859 6.3373L11.1383 7.07074C11.2077 7.27255 11.3976 7.40803 11.6111 7.40803H12.6581C12.8768 7.40803 13.0701 7.26597 13.1353 7.0573L13.3563 6.35073C13.4216 6.14206 13.6149 6 13.8335 6H16.5447C16.7624 6 16.955 6.14084 17.0211 6.34827L19.8918 15.3617C19.9565 15.5651 19.885 15.7872 19.7138 15.9146L17.2887 17.7185C17.0762 17.8765 16.7773 17.8415 16.6071 17.6385L14.7771 15.4559C14.6821 15.3426 14.5418 15.2772 14.3939 15.2772H9.41532C9.28676 15.2772 9.16314 15.3267 9.07013 15.4154L6.69928 17.6778C6.50917 17.8592 6.21106 17.8625 6.01699 17.6854Z" fill="#CD5303"/>
<g id="Group 427322370">
<path id="Rectangle 3013" d="M13.9392 9.74816C13.8832 9.62193 13.9391 9.47172 14.0639 9.41266L14.9678 8.98495C15.0926 8.9259 15.2391 8.98036 15.295 9.1066L15.7001 10.0209C15.756 10.1471 15.7002 10.2973 15.5754 10.3564L14.6715 10.7841C14.5467 10.8431 14.4002 10.7887 14.3442 10.6625L13.9392 9.74816Z" fill="#FF802D"/>
<g id="Group 427322371">
<path id="Rectangle 3014" d="M13.8359 11.92C13.78 11.7937 13.8358 11.6435 13.9606 11.5845L14.8645 11.1568C14.9893 11.0977 15.1358 11.1522 15.1918 11.2784L15.5968 12.1927C15.6528 12.3189 15.5969 12.4691 15.4721 12.5282L14.5682 12.9559C14.4434 13.015 14.2969 12.9605 14.241 12.8343L13.8359 11.92Z" fill="#FF802D"/>
<path id="Rectangle 3015" d="M15.5983 11.0856C15.5424 10.9594 15.5982 10.8092 15.723 10.7501L16.627 10.3224C16.7518 10.2634 16.8983 10.3178 16.9542 10.4441L17.3593 11.3583C17.4152 11.4846 17.3594 11.6348 17.2346 11.6938L16.3307 12.1216C16.2058 12.1806 16.0593 12.1262 16.0034 11.9999L15.5983 11.0856Z" fill="#FF802D"/>
</g>
</g>
<g id="Group 427322343">
<path id="Rectangle 2987" d="M8.59863 9.11969C8.59863 8.98162 8.71056 8.86969 8.84863 8.86969H9.35291C9.49098 8.86969 9.60291 8.98162 9.60291 9.11969V12.6197C9.60291 12.7578 9.49098 12.8697 9.35291 12.8697H8.84863C8.71056 12.8697 8.59863 12.7578 8.59863 12.6197V9.11969Z" fill="#FF802D"/>
<path id="Rectangle 2988" d="M10.8506 10.3697C10.9887 10.3697 11.1006 10.4816 11.1006 10.6197L11.1006 11.1197C11.1006 11.2578 10.9887 11.3697 10.8506 11.3697L7.35059 11.3697C7.21251 11.3697 7.10059 11.2578 7.10059 11.1197L7.10059 10.6197C7.10059 10.4816 7.21251 10.3697 7.35059 10.3697L10.8506 10.3697Z" fill="#FF802D"/>
</g>
</g>
</g>
</svg>
