<svg width="24" height="25" viewBox="0 0 24 25" fill="none" xmlns="http://www.w3.org/2000/svg">
<g id="img_rice_act_24px">
<circle id="Ellipse 694" cx="12" cy="12.0396" r="12" fill="#FFF3EB"/>
<g id="rice">
<path id="Union" fill-rule="evenodd" clip-rule="evenodd" d="M9.12696 5.27467C9.12696 5.14482 9.23667 5.03955 9.37199 5.03955H12.1164C12.1295 5.03955 12.1423 5.04053 12.1548 5.04242H14.4835C14.6188 5.04242 14.7285 5.14769 14.7285 5.27755V5.93332H16.3959C16.5312 5.93332 16.6409 6.03859 16.6409 6.16845V7.07737H17.9331C18.0684 7.07737 18.1781 7.18264 18.1781 7.31249V8.80039H19.255C19.3903 8.80039 19.5 8.90566 19.5 9.03551V11.6689C19.5 11.7988 19.3903 11.904 19.255 11.904H16.5106C16.4664 11.904 16.425 11.8928 16.3893 11.8732H7.633C7.59265 11.9013 7.54305 11.9178 7.48943 11.9178H4.74504C4.60971 11.9178 4.5 11.8125 4.5 11.6827V9.04929C4.5 8.91943 4.60971 8.81417 4.74504 8.81417H5.6352V7.28494C5.6352 7.15508 5.74491 7.04982 5.88024 7.04982H7.25856V6.196C7.25856 6.06614 7.36827 5.96087 7.5036 5.96087H9.12696V5.27467Z" fill="#FF802D"/>
<path id="Union_2" fill-rule="evenodd" clip-rule="evenodd" d="M4.25 11.1787C4.11193 11.1787 4 11.2855 4 11.4173V17.6201C4 17.7519 4.11193 17.8587 4.25 17.8587H8V18.801C8 18.9328 8.11193 19.0396 8.25 19.0396H15.75C15.8881 19.0396 16 18.9328 16 18.801V17.8587H19.75C19.8881 17.8587 20 17.7519 20 17.6201V11.4173C20 11.2855 19.8881 11.1787 19.75 11.1787H4.25Z" fill="#CD5303"/>
</g>
</g>
</svg>
