<svg width="24" height="25" viewBox="0 0 24 25" fill="currentColor" stroke="currentColor" xmlns="http://www.w3.org/2000/svg">
<path fill-rule="evenodd" clip-rule="evenodd" d="M4.07959 2.8125C3.52731 2.8125 3.07959 3.26022 3.07959 3.8125V19.8125C3.07959 20.3648 3.52731 20.8125 4.07959 20.8125H20.0796C20.6319 20.8125 21.0796 20.3648 21.0796 19.8125V3.8125C21.0796 3.26022 20.6319 2.8125 20.0796 2.8125H4.07959ZM11.3296 8.3125C11.3296 8.17443 11.4415 8.0625 11.5796 8.0625H12.5796C12.7177 8.0625 12.8296 8.17443 12.8296 8.3125V11.0625H15.5796C15.7177 11.0625 15.8296 11.1744 15.8296 11.3125V12.3125C15.8296 12.4506 15.7177 12.5625 15.5796 12.5625H12.8296V15.3125C12.8296 15.4506 12.7177 15.5625 12.5796 15.5625H11.5796C11.4415 15.5625 11.3296 15.4506 11.3296 15.3125V12.5625H8.57959C8.44152 12.5625 8.32959 12.4506 8.32959 12.3125V11.3125C8.32959 11.1744 8.44152 11.0625 8.57959 11.0625H11.3296V8.3125Z" fill="currentColor" stroke="currentColor"/>
</svg>
