<svg width="19" height="18" viewBox="0 0 19 18" fill="none" xmlns="http://www.w3.org/2000/svg">
<path d="M7.50029 0.313965H2.16695C1.43057 0.313965 0.833618 0.910918 0.833618 1.6473V6.98063C0.833618 7.71701 1.43057 8.31396 2.16695 8.31396H7.50029C8.23666 8.31396 8.83362 7.71701 8.83362 6.98063V1.6473C8.83362 0.910918 8.23666 0.313965 7.50029 0.313965Z" fill="#9EA3AD"/>
<path d="M16.8337 0.313965H11.5003C10.7639 0.313965 10.167 0.910918 10.167 1.6473V6.98063C10.167 7.71701 10.7639 8.31396 11.5003 8.31396H16.8337C17.57 8.31396 18.167 7.71701 18.167 6.98063V1.6473C18.167 0.910918 17.57 0.313965 16.8337 0.313965Z" fill="#9EA3AD"/>
<path d="M7.50029 9.64746H2.16695C1.43057 9.64746 0.833618 10.2444 0.833618 10.9808V16.3141C0.833618 17.0505 1.43057 17.6475 2.16695 17.6475H7.50029C8.23666 17.6475 8.83362 17.0505 8.83362 16.3141V10.9808C8.83362 10.2444 8.23666 9.64746 7.50029 9.64746Z" fill="#9EA3AD"/>
<path d="M16.8337 9.64746H11.5003C10.7639 9.64746 10.167 10.2444 10.167 10.9808V16.3141C10.167 17.0505 10.7639 17.6475 11.5003 17.6475H16.8337C17.57 17.6475 18.167 17.0505 18.167 16.3141V10.9808C18.167 10.2444 17.57 9.64746 16.8337 9.64746Z" fill="#9EA3AD"/>
</svg>
