<svg viewBox="0 0 18 4" stroke="currentColor" fill="currentColor" xmlns="http://www.w3.org/2000/svg">
<path d="M2 3.75C2.9665 3.75 3.75 2.9665 3.75 2C3.75 1.0335 2.9665 0.25 2 0.25C1.0335 0.25 0.25 1.0335 0.25 2C0.25 2.9665 1.0335 3.75 2 3.75Z" />
<path d="M9.07898 3.75C10.0455 3.75 10.829 2.9665 10.829 2C10.829 1.0335 10.0455 0.25 9.07898 0.25C8.11248 0.25 7.32898 1.0335 7.32898 2C7.32898 2.9665 8.11248 3.75 9.07898 3.75Z" />
<path d="M16.16 3.75C17.1265 3.75 17.91 2.9665 17.91 2C17.91 1.0335 17.1265 0.25 16.16 0.25C15.1935 0.25 14.41 1.0335 14.41 2C14.41 2.9665 15.1935 3.75 16.16 3.75Z" />
</svg>
