<svg width="24" height="25" viewBox="0 0 24 25" fill="none" xmlns="http://www.w3.org/2000/svg">
<g id="img_taxi_24px">
<circle id="Ellipse 694" cx="12" cy="12.0396" r="12" fill="white"/>
<g id="taxi">
<path id="Vector 1149" d="M10 5.28955V7.03197H14V5.28955C14 5.15148 13.8881 5.03955 13.75 5.03955H10.25C10.1119 5.03955 10 5.15148 10 5.28955Z" fill="#73777E"/>
<g id="Group 427322337">
<path id="Rectangle 2976" d="M5.29248 16.3008C5.29248 16.1627 5.40441 16.0508 5.54248 16.0508H8.04248C8.18055 16.0508 8.29248 16.1627 8.29248 16.3008V18.7894C8.29248 18.9275 8.18055 19.0394 8.04248 19.0394H5.54248C5.40441 19.0394 5.29248 18.9275 5.29248 18.7894V16.3008Z" fill="#C2C7D1"/>
<path id="Rectangle 2977" d="M16.041 16.3008C16.041 16.1627 16.1529 16.0508 16.291 16.0508H18.791C18.9291 16.0508 19.041 16.1627 19.041 16.3008V18.7894C19.041 18.9275 18.9291 19.0394 18.791 19.0394H16.291C16.1529 19.0394 16.041 18.9275 16.041 18.7894V16.3008Z" fill="#C2C7D1"/>
</g>
<path id="Vector 1148" d="M16.515 6.65982L18.3704 10.7455L17.1507 11.8778C17.1045 11.9208 17.0437 11.9446 16.9806 11.9446H6.97422C6.90444 11.9446 6.83785 11.9155 6.79052 11.8642L5.75781 10.7455L7.63684 6.65875C7.67763 6.57003 7.76633 6.51318 7.86398 6.51318H16.2874C16.3855 6.51318 16.4745 6.57052 16.515 6.65982Z" fill="#C2C7D1"/>
<g id="Group 427322335">
<path id="Vector 1150" d="M4.14681 12.3494L5.75383 10.7456L6.78654 11.8643C6.83387 11.9156 6.90046 11.9447 6.97024 11.9447H16.9766C17.0397 11.9447 17.1005 11.9209 17.1467 11.8779L18.3664 10.7456L19.8655 12.3518C19.9519 12.4444 20 12.5663 20 12.693V16.829C20 17.1052 19.7761 17.329 19.5 17.329H4.5C4.22386 17.329 4 17.1052 4 16.829V12.7033C4 12.5705 4.05282 12.4432 4.14681 12.3494Z" fill="#73777E"/>
<path id="Rectangle 2978" d="M4 13.6528H7.75C7.88807 13.6528 8 13.7648 8 13.9028V15.3952C8 15.5333 7.88807 15.6452 7.75 15.6452H4V13.6528Z" fill="#C2C7D1"/>
<path id="Rectangle 2979" d="M16 13.9028C16 13.7648 16.1119 13.6528 16.25 13.6528H20V15.6452H16.25C16.1119 15.6452 16 15.5333 16 15.3952V13.9028Z" fill="#C2C7D1"/>
<path id="Rectangle 2980" d="M10 15.347C10 15.2365 10.0895 15.147 10.2 15.147H13.8C13.9105 15.147 14 15.2365 14 15.347V15.4451C14 15.5555 13.9105 15.6451 13.8 15.6451H10.2C10.0895 15.6451 10 15.5555 10 15.4451V15.347Z" fill="#C2C7D1"/>
</g>
</g>
</g>
</svg>
